<svg xmlns="http://www.w3.org/2000/svg" viewBox="0 0 993.25 196.29"><defs><style>.cls-1{fill:#1c75bc;}</style></defs><g id="Layer_2" data-name="Layer 2"><g id="Layer_1-2" data-name="Layer 1"><circle cx="25.68" cy="150.76" r="25.68"/><path class="cls-1" d="M89.86,98.94l-25,49.93c-3.66-7.79-6.32-15.78-10.88-22.46S43,114.59,36.66,108L90.41,0c4.94,9.86,9.54,19,14.1,28.13q27.78,55.74,55.56,111.46c7,13.91,16,16.7,30.08,9.5A54.73,54.73,0,0,0,219.3,92c-3.54-22.64-21.47-41.32-44-45-2.06-.33-4.15-.56-6.25-.7-1.11-.07-2.23-.12-3.35-.14a90.16,90.16,0,0,0-11.17.49c-7.67.81-11.74-2.17-15.13-8.8C133.67,26.74,127,16,120.17,4.08c10.72,0,20.39,0,30.06,0,3.66,0,15.67.13,18,.24.89.05,1.77.09,2.65.15a108.25,108.25,0,0,1,20.54,3.07c36.7,9.51,67.26,45.91,69.86,83.94,3,43.49-16,75.11-53.39,95.67C186,199.19,163.3,200,141.5,185.6c-10.82-7.14-16.74-18.06-22.23-29.28Q106,129.22,92.74,102.1C92.33,101.25,91.44,100.64,89.86,98.94Z"/><path d="M349.38,129.31H305.46l-7.55,21.44H280l37.58-105h19.93L375,150.75H356.93Zm-4.83-14L327.5,66.53l-17.21,48.75Z"/><path d="M419.41,135.8h48.75v14.95H399V137.31l48.6-76.52H399V45.85h69.12V59.28Z"/><path d="M561.74,129.31H517.82l-7.55,21.44h-18l37.58-105h19.93L587.4,150.75H569.29Zm-4.83-14L539.85,66.53l-17.2,48.75Z"/><path d="M669.65,150.75l-24.14-42H632.37v42h-17.2V45.85h36.22q12.08,0,20.45,4.23A29.26,29.26,0,0,1,684.37,61.4a30.76,30.76,0,0,1,4.15,15.84,31.41,31.41,0,0,1-6,18.64q-6,8.39-18.34,11.4l26,43.47Zm-37.28-55.7h19q9.66,0,14.57-4.83t4.9-13q0-8.14-4.83-12.75t-14.64-4.6h-19Z"/><path d="M785.64,52.26a45.94,45.94,0,0,1,19.47,18.42q6.87,12,6.87,28t-6.87,27.78a45.37,45.37,0,0,1-19.47,18q-12.6,6.27-29.35,6.27H722V45.85h34.26Q773,45.85,785.64,52.26Zm-1.13,74.49q9.81-10,9.81-28.08t-9.81-28.52q-9.81-10.26-28.22-10.26H739.23v76.82h17.06Q774.7,136.71,784.51,126.75Z"/><path d="M857.71,45.85v104.9h-17.2V45.85Z"/><path d="M912.73,144.94a50.87,50.87,0,0,1-19.48-19.17,54.09,54.09,0,0,1-7.16-27.7,53.67,53.67,0,0,1,7.16-27.62,51,51,0,0,1,19.48-19.09,56.55,56.55,0,0,1,54,0,50.51,50.51,0,0,1,19.39,19.09,54,54,0,0,1,7.1,27.62,54.45,54.45,0,0,1-7.1,27.7,50.37,50.37,0,0,1-19.39,19.17,56.62,56.62,0,0,1-54,0Zm45.5-12.83A33.06,33.06,0,0,0,971,118.52a43.69,43.69,0,0,0,4.6-20.45A43.22,43.22,0,0,0,971,77.7a32.67,32.67,0,0,0-12.76-13.44,39.16,39.16,0,0,0-37.13,0A32.58,32.58,0,0,0,908.35,77.7a43.1,43.1,0,0,0-4.6,20.37,43.57,43.57,0,0,0,4.6,20.45,33,33,0,0,0,12.75,13.59,38.65,38.65,0,0,0,37.13,0Z"/></g></g></svg>