<svg xmlns="http://www.w3.org/2000/svg" width="201.098" height="59" viewBox="0 0 201.098 59">
  <g id="azardio-logo" transform="translate(-33 -33)">
    <g id="Layer_2" data-name="Layer 2" transform="translate(45 45)" opacity="0.79">
      <g id="Layer_1" data-name="Layer 1" transform="translate(0)">
        <circle id="Ellipse_1" data-name="Ellipse 1" cx="4.579" cy="4.579" r="4.579" transform="translate(0 22.302)" fill="#fff"/>
        <path id="Path_1" data-name="Path 1" d="M46.146,17.642l-4.458,8.9a28.644,28.644,0,0,0-1.94-4,27.973,27.973,0,0,0-3.088-3.283L46.244,0c.881,1.758,1.7,3.388,2.514,5.016q4.953,9.939,9.907,19.874c1.248,2.48,2.853,2.978,5.363,1.694A9.7,9.7,0,0,0,61.38,8.38c-.367-.059-.74-.1-1.114-.125-.2-.012-.4-.021-.6-.025a16.076,16.076,0,0,0-1.992.087,2.408,2.408,0,0,1-2.7-1.569c-1.022-1.981-2.211-3.9-3.429-6.021h5.36c.653,0,2.794.023,3.21.043.159.009.316.016.473.027a19.3,19.3,0,0,1,3.662.547A17.432,17.432,0,0,1,76.711,16.311c.535,7.755-2.853,13.393-9.52,17.059-3.9,2.147-7.951,2.291-11.838-.276a12.191,12.191,0,0,1-3.964-5.221q-2.366-4.832-4.73-9.668A3.5,3.5,0,0,0,46.146,17.642Z" transform="translate(-30.123)" fill="#008eff"/>
        <path id="Path_2" data-name="Path 2" d="M292.371,60.649H284.54l-1.346,3.823H280l6.7-18.722h3.554l6.685,18.722h-3.222Zm-.861-2.5-3.04-8.7L285.4,58.148Z" transform="translate(-230.074 -37.593)" fill="#fff"/>
        <path id="Path_3" data-name="Path 3" d="M402.639,61.889h8.692v2.666H399v-2.4l8.666-13.644H399V45.85h12.325v2.395Z" transform="translate(-327.856 -37.675)" fill="#fff"/>
        <path id="Path_4" data-name="Path 4" d="M504.657,60.649h-7.831l-1.346,3.823H492.27l6.7-18.722h3.554l6.708,18.722H506Zm-.861-2.5-3.042-8.7-3.067,8.692Z" transform="translate(-404.495 -37.593)" fill="#fff"/>
        <path id="Path_5" data-name="Path 5" d="M624.884,64.554l-4.3-7.489h-2.343v7.489H615.17V45.85h6.458a8.019,8.019,0,0,1,3.646.754,5.217,5.217,0,0,1,2.234,2.018,5.485,5.485,0,0,1,.74,2.824,5.6,5.6,0,0,1-1.07,3.324,5.411,5.411,0,0,1-3.27,2.033l4.636,7.751Zm-6.647-9.932h3.388a3.56,3.56,0,0,0,2.6-.861,3.1,3.1,0,0,0,.874-2.318,2.993,2.993,0,0,0-.861-2.273,3.65,3.65,0,0,0-2.61-.82h-3.388Z" transform="translate(-505.482 -37.675)" fill="#fff"/>
        <path id="Path_6" data-name="Path 6" d="M733.347,46.993a8.192,8.192,0,0,1,3.472,3.284,9.874,9.874,0,0,1,1.225,4.993,9.658,9.658,0,0,1-1.225,4.953,8.09,8.09,0,0,1-3.472,3.209,11.606,11.606,0,0,1-5.233,1.118H722V45.85h6.109A11.435,11.435,0,0,1,733.347,46.993Zm-.2,13.282a6.846,6.846,0,0,0,1.749-5.007,7.128,7.128,0,0,0-1.749-5.085,6.636,6.636,0,0,0-5.032-1.829h-3.042v13.7h3.042A6.75,6.75,0,0,0,733.146,60.275Z" transform="translate(-593.263 -37.675)" fill="#fff"/>
        <path id="Path_7" data-name="Path 7" d="M843.577,45.85v18.7H840.51V45.85Z" transform="translate(-690.642 -37.675)" fill="#fff"/>
        <path id="Path_8" data-name="Path 8" d="M890.835,62.407a9.071,9.071,0,0,1-3.473-3.418,10.165,10.165,0,0,1,0-9.864,9.093,9.093,0,0,1,3.474-3.4,10.083,10.083,0,0,1,9.628,0,9.006,9.006,0,0,1,3.457,3.4,10.24,10.24,0,0,1,0,9.864,8.982,8.982,0,0,1-3.457,3.418A10.1,10.1,0,0,1,890.835,62.407Zm8.113-2.288a5.9,5.9,0,0,0,2.277-2.423,7.789,7.789,0,0,0,.82-3.646,7.707,7.707,0,0,0-.82-3.632,5.826,5.826,0,0,0-2.275-2.4,6.982,6.982,0,0,0-6.62,0,5.809,5.809,0,0,0-2.275,2.4,7.686,7.686,0,0,0-.82,3.632,7.769,7.769,0,0,0,.82,3.646,5.884,5.884,0,0,0,2.273,2.423A6.892,6.892,0,0,0,898.948,60.12Z" transform="translate(-728.09 -36.564)" fill="#fff"/>
      </g>
    </g>
    <g id="Layer_2-2" data-name="Layer 2" transform="translate(45 45)">
      <g id="Layer_1-2" data-name="Layer 1" transform="translate(0)">
        <circle id="Ellipse_1-2" data-name="Ellipse 1" cx="4.579" cy="4.579" r="4.579" transform="translate(0 22.302)" fill="#fff"/>
        <path id="Path_1-2" data-name="Path 1" d="M46.146,17.642l-4.458,8.9a28.644,28.644,0,0,0-1.94-4,27.973,27.973,0,0,0-3.088-3.283L46.244,0c.881,1.758,1.7,3.388,2.514,5.016q4.953,9.939,9.907,19.874c1.248,2.48,2.853,2.978,5.363,1.694A9.7,9.7,0,0,0,61.38,8.38c-.367-.059-.74-.1-1.114-.125-.2-.012-.4-.021-.6-.025a16.076,16.076,0,0,0-1.992.087,2.408,2.408,0,0,1-2.7-1.569c-1.022-1.981-2.211-3.9-3.429-6.021h5.36c.653,0,2.794.023,3.21.043.159.009.316.016.473.027a19.3,19.3,0,0,1,3.662.547A17.432,17.432,0,0,1,76.711,16.311c.535,7.755-2.853,13.393-9.52,17.059-3.9,2.147-7.951,2.291-11.838-.276a12.191,12.191,0,0,1-3.964-5.221q-2.366-4.832-4.73-9.668A3.5,3.5,0,0,0,46.146,17.642Z" transform="translate(-30.123)" fill="#008eff"/>
        <path id="Path_2-2" data-name="Path 2" d="M292.371,60.649H284.54l-1.346,3.823H280l6.7-18.722h3.554l6.685,18.722h-3.222Zm-.861-2.5-3.04-8.7L285.4,58.148Z" transform="translate(-230.074 -37.593)" fill="#fff"/>
        <path id="Path_3-2" data-name="Path 3" d="M402.639,61.889h8.692v2.666H399v-2.4l8.666-13.644H399V45.85h12.325v2.395Z" transform="translate(-327.856 -37.675)" fill="#fff"/>
        <path id="Path_4-2" data-name="Path 4" d="M504.657,60.649h-7.831l-1.346,3.823H492.27l6.7-18.722h3.554l6.708,18.722H506Zm-.861-2.5-3.042-8.7-3.067,8.692Z" transform="translate(-404.495 -37.593)" fill="#fff"/>
        <path id="Path_5-2" data-name="Path 5" d="M624.884,64.554l-4.3-7.489h-2.343v7.489H615.17V45.85h6.458a8.019,8.019,0,0,1,3.646.754,5.217,5.217,0,0,1,2.234,2.018,5.485,5.485,0,0,1,.74,2.824,5.6,5.6,0,0,1-1.07,3.324,5.411,5.411,0,0,1-3.27,2.033l4.636,7.751Zm-6.647-9.932h3.388a3.56,3.56,0,0,0,2.6-.861,3.1,3.1,0,0,0,.874-2.318,2.993,2.993,0,0,0-.861-2.273,3.65,3.65,0,0,0-2.61-.82h-3.388Z" transform="translate(-505.482 -37.675)" fill="#fff"/>
        <path id="Path_6-2" data-name="Path 6" d="M733.347,46.993a8.192,8.192,0,0,1,3.472,3.284,9.874,9.874,0,0,1,1.225,4.993,9.658,9.658,0,0,1-1.225,4.953,8.09,8.09,0,0,1-3.472,3.209,11.606,11.606,0,0,1-5.233,1.118H722V45.85h6.109A11.435,11.435,0,0,1,733.347,46.993Zm-.2,13.282a6.846,6.846,0,0,0,1.749-5.007,7.128,7.128,0,0,0-1.749-5.085,6.636,6.636,0,0,0-5.032-1.829h-3.042v13.7h3.042A6.75,6.75,0,0,0,733.146,60.275Z" transform="translate(-593.263 -37.675)" fill="#fff"/>
        <path id="Path_7-2" data-name="Path 7" d="M843.577,45.85v18.7H840.51V45.85Z" transform="translate(-690.642 -37.675)" fill="#fff"/>
        <path id="Path_8-2" data-name="Path 8" d="M890.835,62.407a9.071,9.071,0,0,1-3.473-3.418,10.165,10.165,0,0,1,0-9.864,9.093,9.093,0,0,1,3.474-3.4,10.083,10.083,0,0,1,9.628,0,9.006,9.006,0,0,1,3.457,3.4,10.24,10.24,0,0,1,0,9.864,8.982,8.982,0,0,1-3.457,3.418A10.1,10.1,0,0,1,890.835,62.407Zm8.113-2.288a5.9,5.9,0,0,0,2.277-2.423,7.789,7.789,0,0,0,.82-3.646,7.707,7.707,0,0,0-.82-3.632,5.826,5.826,0,0,0-2.275-2.4,6.982,6.982,0,0,0-6.62,0,5.809,5.809,0,0,0-2.275,2.4,7.686,7.686,0,0,0-.82,3.632,7.769,7.769,0,0,0,.82,3.646,5.884,5.884,0,0,0,2.273,2.423A6.892,6.892,0,0,0,898.948,60.12Z" transform="translate(-728.09 -36.564)" fill="#fff"/>
      </g>
    </g>
  </g>
</svg>
